<mxfile host="65bd71144e" pages="2">
    <diagram name="Architecture" id="ZM3CAE70Ql6t3qwZa69E">
        <mxGraphModel dx="1466" dy="1047" grid="1" gridSize="10" guides="1" tooltips="1" connect="1" arrows="1" fold="1" page="0" pageScale="1" pageWidth="850" pageHeight="1100" math="0" shadow="0">
            <root>
                <mxCell id="0"/>
                <mxCell id="1" parent="0"/>
                <mxCell id="dB_cxi8mHXmGEWxTW_xP-25" value="&lt;br&gt;&lt;br&gt;&lt;b&gt;&lt;font color=&quot;#007fff&quot; style=&quot;font-size: 23px;&quot;&gt;Google Cloud&lt;/font&gt;&lt;/b&gt;" style="verticalAlign=top;align=left;spacingTop=8;spacingLeft=2;spacingRight=12;shape=cube;size=40;direction=south;fontStyle=0;html=1;whiteSpace=wrap;fontSize=16;" parent="1" vertex="1">
                    <mxGeometry x="-80" y="-200" width="760" height="560" as="geometry"/>
                </mxCell>
                <mxCell id="dB_cxi8mHXmGEWxTW_xP-24" value="Kubernetes&lt;br&gt;Engine" style="verticalAlign=top;align=left;spacingTop=8;spacingLeft=2;spacingRight=12;shape=cube;size=10;direction=south;fontStyle=1;html=1;whiteSpace=wrap;fontSize=16;fontColor=#007FFF;shadow=0;labelBorderColor=none;gradientColor=none;" parent="1" vertex="1">
                    <mxGeometry x="-40" y="40" width="640" height="280" as="geometry"/>
                </mxCell>
                <mxCell id="dB_cxi8mHXmGEWxTW_xP-11" style="edgeStyle=none;curved=1;rounded=0;orthogonalLoop=1;jettySize=auto;html=1;entryX=0.5;entryY=1;entryDx=0;entryDy=0;fontSize=12;startSize=8;endSize=8;" parent="1" source="dB_cxi8mHXmGEWxTW_xP-1" target="dB_cxi8mHXmGEWxTW_xP-9" edge="1">
                    <mxGeometry relative="1" as="geometry"/>
                </mxCell>
                <mxCell id="dB_cxi8mHXmGEWxTW_xP-13" value="produces&lt;br style=&quot;font-size: 14px;&quot;&gt;data" style="edgeLabel;html=1;align=center;verticalAlign=middle;resizable=0;points=[];fontSize=14;labelBackgroundColor=default;" parent="dB_cxi8mHXmGEWxTW_xP-11" vertex="1" connectable="0">
                    <mxGeometry x="-0.0859" y="-1" relative="1" as="geometry">
                        <mxPoint as="offset"/>
                    </mxGeometry>
                </mxCell>
                <mxCell id="dB_cxi8mHXmGEWxTW_xP-1" value="«Scrappy»&lt;br style=&quot;font-size: 14px;&quot;&gt;&lt;b style=&quot;font-size: 14px;&quot;&gt;Web Scraper&lt;/b&gt;&lt;br&gt;&lt;i style=&quot;&quot;&gt;&lt;font style=&quot;font-size: 12px;&quot;&gt;Collects data from various sources&lt;/font&gt;&lt;/i&gt;" style="html=1;dropTarget=0;whiteSpace=wrap;fontSize=14;fillColor=#f5f5f5;fontColor=#333333;strokeColor=#666666;" parent="1" vertex="1">
                    <mxGeometry x="80" y="80" width="160" height="80" as="geometry"/>
                </mxCell>
                <mxCell id="dB_cxi8mHXmGEWxTW_xP-2" value="" style="shape=module;jettyWidth=8;jettyHeight=4;fontSize=16;" parent="dB_cxi8mHXmGEWxTW_xP-1" vertex="1">
                    <mxGeometry x="1" width="20" height="20" relative="1" as="geometry">
                        <mxPoint x="-27" y="7" as="offset"/>
                    </mxGeometry>
                </mxCell>
                <mxCell id="dB_cxi8mHXmGEWxTW_xP-12" style="edgeStyle=none;curved=1;rounded=0;orthogonalLoop=1;jettySize=auto;html=1;entryX=1;entryY=0.5;entryDx=0;entryDy=0;fontSize=12;startSize=8;endSize=8;" parent="1" source="dB_cxi8mHXmGEWxTW_xP-3" target="dB_cxi8mHXmGEWxTW_xP-9" edge="1">
                    <mxGeometry relative="1" as="geometry"/>
                </mxCell>
                <mxCell id="dB_cxi8mHXmGEWxTW_xP-14" value="consumes&lt;br style=&quot;font-size: 12px;&quot;&gt;data" style="edgeLabel;html=1;align=center;verticalAlign=middle;resizable=0;points=[];fontSize=12;" parent="dB_cxi8mHXmGEWxTW_xP-12" vertex="1" connectable="0">
                    <mxGeometry x="-0.086" y="1" relative="1" as="geometry">
                        <mxPoint x="-3" y="-1" as="offset"/>
                    </mxGeometry>
                </mxCell>
                <mxCell id="dB_cxi8mHXmGEWxTW_xP-15" style="edgeStyle=none;curved=1;rounded=0;orthogonalLoop=1;jettySize=auto;html=1;fontSize=12;startSize=8;endSize=8;entryX=0;entryY=0.5;entryDx=0;entryDy=0;entryPerimeter=0;" parent="1" source="dB_cxi8mHXmGEWxTW_xP-3" target="TPM5Qav3wPqz6I4m3XTt-1" edge="1">
                    <mxGeometry relative="1" as="geometry">
                        <mxPoint x="470" y="-40" as="targetPoint"/>
                    </mxGeometry>
                </mxCell>
                <mxCell id="dB_cxi8mHXmGEWxTW_xP-16" value="writes&lt;br style=&quot;font-size: 12px;&quot;&gt;to" style="edgeLabel;html=1;align=center;verticalAlign=middle;resizable=0;points=[];fontSize=12;" parent="dB_cxi8mHXmGEWxTW_xP-15" vertex="1" connectable="0">
                    <mxGeometry x="-0.109" y="3" relative="1" as="geometry">
                        <mxPoint x="4" y="3" as="offset"/>
                    </mxGeometry>
                </mxCell>
                <mxCell id="dB_cxi8mHXmGEWxTW_xP-3" value="«Spark»&lt;br&gt;&lt;b&gt;DataProc&lt;/b&gt;&lt;br&gt;&lt;font style=&quot;font-size: 12px;&quot;&gt;Hosts our data streaming sparks application.&amp;nbsp;&lt;/font&gt;" style="html=1;dropTarget=0;whiteSpace=wrap;fontSize=16;fillColor=#f5f5f5;fontColor=#333333;strokeColor=#666666;" parent="1" vertex="1">
                    <mxGeometry x="210" y="-140" width="140" height="80" as="geometry"/>
                </mxCell>
                <mxCell id="dB_cxi8mHXmGEWxTW_xP-4" value="" style="shape=module;jettyWidth=8;jettyHeight=4;fontSize=16;" parent="dB_cxi8mHXmGEWxTW_xP-3" vertex="1">
                    <mxGeometry x="1" width="20" height="20" relative="1" as="geometry">
                        <mxPoint x="-27" y="7" as="offset"/>
                    </mxGeometry>
                </mxCell>
                <mxCell id="dB_cxi8mHXmGEWxTW_xP-17" style="edgeStyle=none;curved=1;rounded=0;orthogonalLoop=1;jettySize=auto;html=1;fontSize=12;startSize=8;endSize=8;entryX=0.5;entryY=1;entryDx=0;entryDy=0;entryPerimeter=0;exitX=0.75;exitY=0;exitDx=0;exitDy=0;" parent="1" source="dB_cxi8mHXmGEWxTW_xP-5" target="TPM5Qav3wPqz6I4m3XTt-1" edge="1">
                    <mxGeometry relative="1" as="geometry"/>
                </mxCell>
                <mxCell id="dB_cxi8mHXmGEWxTW_xP-18" value="fetches data" style="edgeLabel;html=1;align=center;verticalAlign=middle;resizable=0;points=[];fontSize=14;" parent="dB_cxi8mHXmGEWxTW_xP-17" vertex="1" connectable="0">
                    <mxGeometry x="-0.1286" y="1" relative="1" as="geometry">
                        <mxPoint x="1" y="-5" as="offset"/>
                    </mxGeometry>
                </mxCell>
                <mxCell id="dB_cxi8mHXmGEWxTW_xP-5" value="«Node + Express»&lt;br style=&quot;font-size: 14px;&quot;&gt;&lt;b style=&quot;font-size: 14px;&quot;&gt;API&lt;/b&gt;&lt;br style=&quot;font-size: 14px;&quot;&gt;&lt;i&gt;&lt;font style=&quot;font-size: 12px;&quot;&gt;Auth + Database interface&lt;/font&gt;&lt;/i&gt;" style="html=1;dropTarget=0;whiteSpace=wrap;fontSize=14;fillColor=#f5f5f5;fontColor=#333333;strokeColor=#666666;" parent="1" vertex="1">
                    <mxGeometry x="320" y="80" width="180" height="80" as="geometry"/>
                </mxCell>
                <mxCell id="dB_cxi8mHXmGEWxTW_xP-6" value="" style="shape=module;jettyWidth=8;jettyHeight=4;fontSize=16;" parent="dB_cxi8mHXmGEWxTW_xP-5" vertex="1">
                    <mxGeometry x="1" width="20" height="20" relative="1" as="geometry">
                        <mxPoint x="-27" y="7" as="offset"/>
                    </mxGeometry>
                </mxCell>
                <mxCell id="dB_cxi8mHXmGEWxTW_xP-9" value="«Kafka»&lt;br&gt;&lt;b&gt;Confluent Cloud&lt;/b&gt;" style="html=1;dropTarget=0;whiteSpace=wrap;fontSize=16;fillColor=#f5f5f5;fontColor=#333333;strokeColor=#666666;" parent="1" vertex="1">
                    <mxGeometry x="-40" y="-80" width="160" height="80" as="geometry"/>
                </mxCell>
                <mxCell id="dB_cxi8mHXmGEWxTW_xP-10" value="" style="shape=module;jettyWidth=8;jettyHeight=4;fontSize=16;" parent="dB_cxi8mHXmGEWxTW_xP-9" vertex="1">
                    <mxGeometry x="1" width="20" height="20" relative="1" as="geometry">
                        <mxPoint x="-27" y="7" as="offset"/>
                    </mxGeometry>
                </mxCell>
                <mxCell id="TPM5Qav3wPqz6I4m3XTt-1" value="&lt;font style=&quot;font-size: 16px;&quot;&gt;«PostgreSQL»&lt;br style=&quot;border-color: var(--border-color); color: rgb(51, 51, 51);&quot;&gt;&lt;b style=&quot;font-size: 16px;&quot;&gt;&lt;font style=&quot;font-size: 16px;&quot;&gt;Cloud SQL&lt;/font&gt;&lt;/b&gt;&lt;br style=&quot;font-size: 16px;&quot;&gt;&lt;/font&gt;" style="shape=cylinder3;whiteSpace=wrap;html=1;boundedLbl=1;backgroundOutline=1;size=15;fontSize=16;fillColor=#dae8fc;strokeColor=#6c8ebf;" parent="1" vertex="1">
                    <mxGeometry x="480" y="-95" width="120" height="110" as="geometry"/>
                </mxCell>
                <mxCell id="nGBkdCVZPFDWOhvfTSr3-5" style="edgeStyle=none;curved=1;rounded=0;orthogonalLoop=1;jettySize=auto;html=1;entryX=0.5;entryY=1;entryDx=0;entryDy=0;fontSize=12;startSize=8;endSize=8;exitX=0.5;exitY=0;exitDx=0;exitDy=0;" parent="1" source="nGBkdCVZPFDWOhvfTSr3-3" target="dB_cxi8mHXmGEWxTW_xP-5" edge="1">
                    <mxGeometry relative="1" as="geometry"/>
                </mxCell>
                <mxCell id="nGBkdCVZPFDWOhvfTSr3-3" value="«Node + React»&lt;br style=&quot;font-size: 14px;&quot;&gt;&lt;b style=&quot;font-size: 14px;&quot;&gt;Web App&lt;/b&gt;&lt;br style=&quot;font-size: 14px;&quot;&gt;&lt;i&gt;&lt;font style=&quot;font-size: 12px;&quot;&gt;User interface&lt;/font&gt;&lt;/i&gt;" style="html=1;dropTarget=0;whiteSpace=wrap;fontSize=14;fillColor=#f5f5f5;fontColor=#333333;strokeColor=#666666;" parent="1" vertex="1">
                    <mxGeometry x="330" y="220" width="160" height="80" as="geometry"/>
                </mxCell>
                <mxCell id="nGBkdCVZPFDWOhvfTSr3-4" value="" style="shape=module;jettyWidth=8;jettyHeight=4;fontSize=16;" parent="nGBkdCVZPFDWOhvfTSr3-3" vertex="1">
                    <mxGeometry x="1" width="20" height="20" relative="1" as="geometry">
                        <mxPoint x="-27" y="7" as="offset"/>
                    </mxGeometry>
                </mxCell>
                <mxCell id="nGBkdCVZPFDWOhvfTSr3-7" value="1" style="ellipse;whiteSpace=wrap;html=1;aspect=fixed;fontSize=16;fontStyle=1;fillColor=#d5e8d4;strokeColor=#82b366;" parent="1" vertex="1">
                    <mxGeometry x="30" y="30" width="20" height="20" as="geometry"/>
                </mxCell>
                <mxCell id="nGBkdCVZPFDWOhvfTSr3-8" value="2" style="ellipse;whiteSpace=wrap;html=1;aspect=fixed;fontSize=16;fontStyle=1;fillColor=#d5e8d4;strokeColor=#82b366;" parent="1" vertex="1">
                    <mxGeometry x="160" y="-100" width="20" height="20" as="geometry"/>
                </mxCell>
                <mxCell id="nGBkdCVZPFDWOhvfTSr3-9" value="3" style="ellipse;whiteSpace=wrap;html=1;aspect=fixed;fontSize=16;fontStyle=1;fillColor=#d5e8d4;strokeColor=#82b366;" parent="1" vertex="1">
                    <mxGeometry x="400" y="-100" width="20" height="20" as="geometry"/>
                </mxCell>
                <mxCell id="nGBkdCVZPFDWOhvfTSr3-12" style="edgeStyle=none;curved=1;rounded=0;orthogonalLoop=1;jettySize=auto;html=1;entryX=0.5;entryY=1;entryDx=0;entryDy=0;fontSize=12;startSize=8;endSize=8;" parent="1" source="nGBkdCVZPFDWOhvfTSr3-11" target="nGBkdCVZPFDWOhvfTSr3-3" edge="1">
                    <mxGeometry relative="1" as="geometry"/>
                </mxCell>
                <mxCell id="nGBkdCVZPFDWOhvfTSr3-13" value="Uses web app" style="edgeLabel;html=1;align=center;verticalAlign=middle;resizable=0;points=[];fontSize=16;" parent="nGBkdCVZPFDWOhvfTSr3-12" vertex="1" connectable="0">
                    <mxGeometry x="0.137" y="1" relative="1" as="geometry">
                        <mxPoint as="offset"/>
                    </mxGeometry>
                </mxCell>
                <mxCell id="nGBkdCVZPFDWOhvfTSr3-11" value="End user" style="shape=umlActor;verticalLabelPosition=bottom;verticalAlign=top;html=1;outlineConnect=0;fontSize=16;" parent="1" vertex="1">
                    <mxGeometry x="395" y="390" width="30" height="60" as="geometry"/>
                </mxCell>
            </root>
        </mxGraphModel>
    </diagram>
    <diagram id="HtF2YZ1RWhBlacTlJTch" name="Data">
        <mxGraphModel dx="1066" dy="647" grid="1" gridSize="10" guides="1" tooltips="1" connect="1" arrows="1" fold="1" page="1" pageScale="1" pageWidth="850" pageHeight="1100" math="0" shadow="0">
            <root>
                <mxCell id="0"/>
                <mxCell id="1" parent="0"/>
            </root>
        </mxGraphModel>
    </diagram>
</mxfile>